<?xml version="1.0" encoding="UTF-8" standalone="no"?>
<svg
   xmlns:dc="http://purl.org/dc/elements/1.1/"
   xmlns:cc="http://creativecommons.org/ns#"
   xmlns:rdf="http://www.w3.org/1999/02/22-rdf-syntax-ns#"
   xmlns:svg="http://www.w3.org/2000/svg"
   xmlns="http://www.w3.org/2000/svg"
   xmlns:xlink="http://www.w3.org/1999/xlink"
   xmlns:sodipodi="http://sodipodi.sourceforge.net/DTD/sodipodi-0.dtd"
   xmlns:inkscape="http://www.inkscape.org/namespaces/inkscape"
   xml:space="preserve"
   version="1.1"
   viewBox="0 0 344.51944 218.28775"
   id="svg26"
   sodipodi:docname="JuliaConnectoRLogo.svg"
   inkscape:version="0.92.4 (5da689c313, 2019-01-14)"
   width="344.51944"
   height="218.28775"><metadata
   id="metadata32"><rdf:RDF><cc:Work
       rdf:about=""><dc:format>image/svg+xml</dc:format><dc:type
         rdf:resource="http://purl.org/dc/dcmitype/StillImage" /><dc:title></dc:title></cc:Work></rdf:RDF></metadata><defs
   id="defs30"><linearGradient
     gradientTransform="matrix(0.09311001,0,0,-0.09544406,82.570818,180.13731)"
     id="gradientFill-2"
     x1="301.02603"
     x2="614.19513"
     y1="151.4006"
     y2="548.34216"
     gradientUnits="userSpaceOnUse"
     spreadMethod="pad"><stop
       offset="0"
       stop-color="rgb(39,109,195)"
       stop-opacity="1"
       id="stop7" /><stop
       offset="1"
       stop-color="rgb(22,92,170)"
       stop-opacity="1"
       id="stop9" /></linearGradient><linearGradient
     gradientTransform="matrix(0.28021954,0,0,-0.18852718,-55.250659,-178.74416)"
     id="gradientFill-1"
     x1="0.7414425"
     x2="590.86261"
     y1="3.6658268"
     y2="593.78699"
     gradientUnits="userSpaceOnUse"
     spreadMethod="pad"><stop
       offset="0"
       stop-color="rgb(203,206,208)"
       stop-opacity="1"
       id="stop2" /><stop
       offset="1"
       stop-color="rgb(132,131,139)"
       stop-opacity="1"
       id="stop4" /></linearGradient><linearGradient
     gradientTransform="matrix(0.07067067,0,0,-0.04592389,69.592037,158.65858)"
     id="gradientFill-2-8"
     x1="301.02603"
     x2="685.50909"
     y1="151.4006"
     y2="526.42206"
     gradientUnits="userSpaceOnUse"
     spreadMethod="pad"><stop
       offset="0"
       stop-color="rgb(39,109,195)"
       stop-opacity="1"
       id="stop7-0" /><stop
       offset="1"
       stop-color="rgb(22,92,170)"
       stop-opacity="1"
       id="stop9-4" /></linearGradient><linearGradient
     inkscape:collect="always"
     xlink:href="#gradientFill-2"
     id="linearGradient4612"
     x1="90.764038"
     y1="142.76884"
     x2="121.53765"
     y2="142.76884"
     gradientUnits="userSpaceOnUse"
     gradientTransform="matrix(1.2251682,0,0,1.2251682,-19.044715,-24.582078)" /></defs><sodipodi:namedview
   pagecolor="#ffffff"
   bordercolor="#666666"
   borderopacity="1"
   objecttolerance="10"
   gridtolerance="10"
   guidetolerance="10"
   inkscape:pageopacity="0"
   inkscape:pageshadow="2"
   inkscape:window-width="1680"
   inkscape:window-height="987"
   id="namedview28"
   showgrid="false"
   inkscape:zoom="0.45588009"
   inkscape:cx="-237.49051"
   inkscape:cy="538.96315"
   inkscape:window-x="1042"
   inkscape:window-y="331"
   inkscape:window-maximized="1"
   inkscape:current-layer="g22" />
<g
   transform="matrix(1.25,0,0,-1.25,-24.13599,236.93983)"
   id="g24">

<g
   stroke-miterlimit="4"
   id="g22"
   style="stroke-width:3.0703125;stroke-linecap:butt;stroke-miterlimit:4">

<path
   style="opacity:1;vector-effect:none;fill:#cbced0;fill-opacity:1;stroke:none;stroke-width:0.48879999;stroke-linecap:butt;stroke-linejoin:miter;stroke-miterlimit:4;stroke-dasharray:none;stroke-dashoffset:0;stroke-opacity:1"
   id="path4573"
   transform="scale(1,-1)"
   sodipodi:type="arc"
   sodipodi:cx="107.92311"
   sodipodi:cy="-102.23676"
   sodipodi:rx="88.614319"
   sodipodi:ry="87.315102"
   sodipodi:start="0.56958862"
   sodipodi:end="5.7010454"
   d="m 182.54726,-55.148981 a 88.614319,87.315102 0 0 1 -99.254255,36.786785 88.614319,87.315102 0 0 1 -63.982468,-83.326614 88.614319,87.315102 0 0 1 62.916038,-84.11131 88.614319,87.315102 0 0 1 99.715015,35.55641 l -74.01848,48.00695 z" /><circle
   cx="174.84694"
   cy="102.60201"
   r="16"
   id="circle16"
   style="fill:#d5635c;stroke:#cb3c33" />
<circle
   cx="225.67934"
   cy="103.50506"
   r="16"
   id="circle18"
   style="fill:#60ad51;stroke:#389826" />
<circle
   cx="277.38919"
   cy="104.35686"
   r="16"
   id="circle20"
   style="fill:#aa79c1;stroke:#9558b2" />
<path
   inkscape:connector-curvature="0"
   style="fill:url(#linearGradient4612);fill-opacity:1;fill-rule:evenodd;stroke:#165caa;stroke-width:0.24886297;stroke-opacity:1"
   d="m 117.87678,146.79007 c 3.92029,-2.98124 3.96229,-3.67449 8.36102,-7.30322 l -7.80514,-0.0756 -5.7849,3.93891 c 0,0 -1.53886,0.99036 -2.37072,1.41926 -0.69392,0.35774 -1.46488,0.53262 -2.15099,0.53262 h -3.35445 l -0.0756,-5.8851 -7.664742,-0.0386 v 21.71404 l 20.337002,0.19003 c 0,0 8.38609,-0.3212 8.38609,-7.24447 0,-6.9232 -7.87825,-7.2485 -7.87825,-7.2485 z m -5.43401,8.79532 -7.56321,0.003 -0.003,-4.46636 7.56698,8.9e-4 c 0,0 5.04898,-0.10325 5.04898,2.16166 0,2.31062 -5.04898,2.30005 -5.04898,2.30005 z"
   id="path16"
   sodipodi:nodetypes="cccccscccccsccccccscc" /></g>
</g>
</svg>